<?xml version="1.0" encoding="utf-8"?>
<!-- Generator: Adobe Illustrator 24.1.0, SVG Export Plug-In . SVG Version: 6.00 Build 0)  -->
<svg version="1.1" id="Layer_1" xmlns="http://www.w3.org/2000/svg" xmlns:xlink="http://www.w3.org/1999/xlink" x="0px" y="0px"
	 viewBox="0 0 1078 143" style="enable-background:new 0 0 1078 143;" xml:space="preserve">
<style type="text/css">
	.st0{fill:url(#SVGID_1_);}
	.st1{fill:url(#SVGID_2_);}
	.st2{fill:url(#SVGID_3_);}
	.st3{fill:url(#SVGID_4_);}
	.st4{fill:url(#SVGID_5_);}
	.st5{fill:url(#SVGID_6_);}
	.st6{fill:url(#SVGID_7_);}
	.st7{fill:url(#SVGID_8_);}
</style>
<g>
	<g>
		<linearGradient id="SVGID_1_" gradientUnits="userSpaceOnUse" x1="-47.8601" y1="70.949" x2="942.9077" y2="70.949">
			<stop  offset="0" style="stop-color:#E82829"/>
			<stop  offset="0.2246" style="stop-color:#E4E11D"/>
			<stop  offset="0.4017" style="stop-color:#7EBF42"/>
			<stop  offset="0.6167" style="stop-color:#4A9DD6"/>
			<stop  offset="0.8347" style="stop-color:#E36CA5"/>
			<stop  offset="1" style="stop-color:#E82432"/>
		</linearGradient>
		<path class="st0" d="M6.36,71.41c0.49-23.51,8.89-41.58,25.21-54.2C46.39,5.74,64.26,0.04,85.16,0.14
			c12.45,0.19,24.16,1.9,35.11,5.14c2.06,0.69,3.9,0.97,5.51,0.84c0.23,6.11,1.12,16.1,2.68,29.98c-0.58,0.66-1.39,0.99-2.43,0.99
			c-1.03,0.13-2.03-0.08-3-0.61c-0.5-3.55-1.55-7.09-3.15-10.65c-1.66-3.62-4.07-6.87-7.22-9.76c-2.89-2.88-6.85-5.28-11.88-7.17
			c-4.9-1.69-11-2.56-18.29-2.59C66.93,6.24,53.84,11.26,43.2,21.37C32.18,31.41,26.5,47.12,26.15,68.49
			c0.16,21.58,5.9,38.07,17.21,49.47c10.92,11.67,24.72,17.54,41.37,17.62c6.46,0.03,12.08-0.95,16.86-2.93
			c4.78-1.92,8.77-4.3,11.94-7.16c3.31-2.86,6.03-6.05,8.18-9.58c2.01-3.46,3.55-6.63,4.59-9.5c0.91-0.66,1.91-0.86,3-0.59
			c1.03,0.14,1.74,0.64,2.13,1.51c-0.67,5.61-2.02,11.05-4.04,16.32c-1.96,5.47-3.81,9.37-5.57,11.7c-2.39,0.38-4.71,1.05-6.97,2.01
			c-2.33,0.76-6.49,1.65-12.5,2.65c-5.94,1.07-12.2,1.65-18.78,1.75c-18.13,0.05-34.56-4.58-49.29-13.9
			c-8.04-5.76-14.62-13.38-19.74-22.86C9.16,95.73,6.43,84.53,6.36,71.41z"/>
		<linearGradient id="SVGID_2_" gradientUnits="userSpaceOnUse" x1="-47.8601" y1="72.091" x2="942.9077" y2="72.091">
			<stop  offset="0" style="stop-color:#E82829"/>
			<stop  offset="0.2246" style="stop-color:#E4E11D"/>
			<stop  offset="0.4017" style="stop-color:#7EBF42"/>
			<stop  offset="0.6167" style="stop-color:#4A9DD6"/>
			<stop  offset="0.8347" style="stop-color:#E36CA5"/>
			<stop  offset="1" style="stop-color:#E82432"/>
		</linearGradient>
		<path class="st1" d="M319.97,35.04c0.18-10.55-0.31-17.46-1.46-20.74c-1.47-3.41-5.24-5.13-11.31-5.16l-4.94-0.52
			c-0.53-0.51-0.73-1.41-0.59-2.69c0-1.22,0.34-1.95,0.99-2.21c10.17,0.44,18.74,0.68,25.7,0.71c7.02,0.03,15.14-0.13,24.35-0.49
			c0.65,0.26,1.05,1,1.17,2.22c0,1.28-0.28,2.18-0.81,2.69l-4.74,0.46c-5.54-0.02-9,1.67-10.37,5.07
			c-1.31,3.27-1.92,10.18-1.83,20.73l-0.31,71.35c-0.03,6.15,0.21,10.96,0.71,14.43c0.5,3.27,1.62,5.85,3.35,7.73
			c1.03,1.14,2.99,2.19,5.89,3.13c1.61,0.41,3.68,0.75,6.19,1.03c2.64,0.48,5.8,0.73,9.48,0.74c8.32,0.04,14.13-0.24,17.43-0.83
			c3.23-0.39,5.49-0.98,6.79-1.77c4.4-2.72,8.79-9.48,13.16-20.29c0.84-0.53,1.91-0.66,3.19-0.39c1.03,0.27,1.61,0.81,1.73,1.6
			c0,0.6-0.26,2.03-0.79,4.29c-0.65,2.59-1.38,5.45-2.16,8.57c-2.03,6.97-3.86,12.22-5.49,15.74c-5.09-0.29-12.03-0.45-20.8-0.49
			c-8.58-0.17-18.06-0.28-28.44-0.32l-18.28-0.08c-7.1-0.03-15.67,0.13-25.73,0.49c-0.66-0.53-0.98-1.31-0.98-2.36
			c-0.13-1.11,0.07-1.99,0.61-2.64l5.92-0.56c5.55-0.24,9.02-2,10.39-5.27c1.18-3.2,1.73-9.98,1.64-20.34L319.97,35.04z"/>
		<linearGradient id="SVGID_3_" gradientUnits="userSpaceOnUse" x1="-47.8601" y1="73.1269" x2="942.9077" y2="73.1269">
			<stop  offset="0" style="stop-color:#E82829"/>
			<stop  offset="0.2246" style="stop-color:#E4E11D"/>
			<stop  offset="0.4017" style="stop-color:#7EBF42"/>
			<stop  offset="0.6167" style="stop-color:#4A9DD6"/>
			<stop  offset="0.8347" style="stop-color:#E36CA5"/>
			<stop  offset="1" style="stop-color:#E82432"/>
		</linearGradient>
		<path class="st2" d="M437.7,31.42c0.03-7.15-0.4-12.16-1.29-15.04c-1.21-2.88-3.86-4.53-7.93-4.94l-4.36-0.62
			c-0.8-0.65-1.19-1.53-1.19-2.63c0-1.03,0.47-1.81,1.4-2.32c16.66-1.02,33.24-1.5,49.77-1.43c16.39-0.06,30.91,2,43.54,6.18
			c13.47,5.27,23.56,13.22,30.29,23.86c6.54,10.71,9.78,22.97,9.71,36.78c-0.25,27.03-11.89,47.33-34.92,60.91
			c-13.65,6.62-28.48,9.82-44.48,9.62c-6.45-0.16-12.52-0.45-18.2-0.88c-5.81-0.56-10.52-0.85-14.13-0.86
			c-7.81-0.03-16.07,0.13-24.79,0.49c-0.66-0.53-0.98-1.31-0.98-2.36c-0.13-1.11,0.07-1.99,0.61-2.64l4.56-0.57
			c5.56-0.38,9.02-2.2,10.39-5.47c1.18-3.2,1.73-9.91,1.64-20.14L437.7,31.42z M453.55,104.74c-0.31,10.35,0.98,17.81,3.88,22.36
			c4.05,5.9,12.18,8.74,24.4,8.52c19.2-0.05,33.39-5.93,42.56-17.65c8.91-11.59,13.4-27.03,13.49-46.34
			c0.03-5.88-0.72-12.26-2.24-19.15c-1.72-6.96-4.79-13.58-9.22-19.88c-4.5-6.3-10.78-11.54-18.84-15.72
			c-8.2-3.98-18.85-6.06-31.98-6.25c-2.78-0.01-5.31,0.05-7.57,0.17c-2.33,0.12-4.3,0.32-5.92,0.58c-3.3,0.65-5.34,1.31-6.12,1.98
			c-1.5,1.26-2.2,6.47-2.11,15.62L453.55,104.74z"/>
		<linearGradient id="SVGID_4_" gradientUnits="userSpaceOnUse" x1="-47.8601" y1="73.2763" x2="942.9077" y2="73.2763">
			<stop  offset="0" style="stop-color:#E82829"/>
			<stop  offset="0.2246" style="stop-color:#E4E11D"/>
			<stop  offset="0.4017" style="stop-color:#7EBF42"/>
			<stop  offset="0.6167" style="stop-color:#4A9DD6"/>
			<stop  offset="0.8347" style="stop-color:#E36CA5"/>
			<stop  offset="1" style="stop-color:#E82432"/>
		</linearGradient>
		<path class="st3" d="M613.15,110.16c-0.18,10.22,0.47,16.93,1.95,20.15c1.28,3.28,4.96,5.13,11.04,5.56l5.33,0.62
			c0.6,0.53,0.9,1.34,0.89,2.45c-0.14,1.18-0.57,2.02-1.3,2.54c-10.26-0.44-18.83-0.67-25.74-0.7c-7.81-0.03-15.87,0.13-24.19,0.48
			c-0.66-0.53-0.98-1.31-0.98-2.36c-0.13-1.11,0.07-1.99,0.61-2.64l4.17-0.57c5.56-0.38,9.02-2.2,10.39-5.47
			c1.18-3.2,1.73-9.91,1.64-20.13l0.33-75.76c0.17-8.62-0.19-14.43-1.09-17.44c-1.09-2.88-3.8-4.39-8.12-4.55l-7.17-0.83
			c-0.53-0.78-0.79-1.72-0.79-2.82c0-1.03,0.4-1.74,1.2-2.13c10.2-1.05,23.31-1.54,39.32-1.47c16.27-0.06,28.94,2.73,38.02,8.36
			c10.1,6.18,15.31,16.42,15.64,30.75c-0.17,9.33-2.39,16.48-6.67,21.46c-2.01,2.59-4.11,4.78-6.32,6.57
			c-2.39,1.79-4.72,3.28-6.98,4.47c-9.37,4.16-18.5,6.15-27.39,5.98c-0.66-0.52-0.99-1.23-0.98-2.14c0-0.91,0.27-1.52,0.81-1.84
			c10.62-2.1,18.27-6.15,22.95-12.15c4.23-5.87,6.37-13.3,6.4-22.27c-0.04-21.36-10.63-32.35-31.78-32.98
			c-4.92-0.02-7.99,0.37-9.23,1.17c-1.17,0.93-1.7,2.97-1.58,6.12L613.15,110.16z"/>
		<linearGradient id="SVGID_5_" gradientUnits="userSpaceOnUse" x1="-47.8601" y1="73.7724" x2="942.9077" y2="73.7724">
			<stop  offset="0" style="stop-color:#E82829"/>
			<stop  offset="0.2246" style="stop-color:#E4E11D"/>
			<stop  offset="0.4017" style="stop-color:#7EBF42"/>
			<stop  offset="0.6167" style="stop-color:#4A9DD6"/>
			<stop  offset="0.8347" style="stop-color:#E36CA5"/>
			<stop  offset="1" style="stop-color:#E82432"/>
		</linearGradient>
		<path class="st4" d="M713.49,36.72c0.18-10.55-0.31-17.46-1.46-20.74c-1.47-3.41-5.24-5.13-11.32-5.16l-4.94-0.52
			c-0.53-0.51-0.73-1.41-0.59-2.69c0-1.22,0.34-1.95,0.99-2.21c10.18,0.44,18.74,0.68,25.7,0.71c7.02,0.03,15.14-0.13,24.35-0.49
			c0.65,0.26,1.05,1,1.17,2.22c0,1.28-0.28,2.18-0.81,2.69l-4.74,0.46c-5.54-0.02-9,1.66-10.37,5.06
			c-1.31,3.27-1.92,10.18-1.83,20.74l-0.31,71.35c-0.03,6.15,0.21,10.96,0.71,14.43c0.5,3.27,1.62,5.85,3.35,7.73
			c1.03,1.14,2.99,2.19,5.89,3.13c1.61,0.41,3.68,0.75,6.19,1.03c2.64,0.48,5.8,0.73,9.48,0.74c8.32,0.04,14.13-0.24,17.43-0.83
			c3.23-0.39,5.49-0.98,6.79-1.77c4.4-2.72,8.79-9.48,13.16-20.29c0.84-0.53,1.91-0.66,3.19-0.39c1.03,0.27,1.61,0.81,1.73,1.61
			c0,0.6-0.26,2.03-0.79,4.29c-0.65,2.59-1.38,5.45-2.16,8.57c-2.03,6.97-3.86,12.22-5.49,15.74c-5.09-0.29-12.03-0.45-20.8-0.49
			c-8.58-0.17-18.06-0.28-28.44-0.32l-18.28-0.08c-7.1-0.03-15.67,0.13-25.74,0.49c-0.66-0.53-0.98-1.31-0.98-2.36
			c-0.13-1.11,0.07-1.99,0.61-2.64l5.92-0.56c5.56-0.24,9.02-2,10.39-5.27c1.18-3.2,1.73-9.98,1.64-20.34L713.49,36.72z"/>
		<linearGradient id="SVGID_6_" gradientUnits="userSpaceOnUse" x1="-47.8601" y1="73.1588" x2="942.9077" y2="73.1588">
			<stop  offset="0" style="stop-color:#E82829"/>
			<stop  offset="0.2246" style="stop-color:#E4E11D"/>
			<stop  offset="0.4017" style="stop-color:#7EBF42"/>
			<stop  offset="0.6167" style="stop-color:#4A9DD6"/>
			<stop  offset="0.8347" style="stop-color:#E36CA5"/>
			<stop  offset="1" style="stop-color:#E82432"/>
		</linearGradient>
		<path class="st5" d="M901.81,94.48c-0.51-2.21-1.21-3.71-2.11-4.52c-1.03-0.4-3-0.61-5.9-0.63l-29.99-0.13
			c-2.39-0.01-4.03,0.18-4.93,0.58c-1.04,0.66-1.91,2.1-2.63,4.3l-6.96,21.51c-2.94,9.14-4.42,14.81-4.43,17.01
			c0,1.2,0.38,2.07,1.15,2.61c0.77,0.87,2.28,1.38,4.54,1.52l6.57,0.62c0.77,0.53,1.16,1.34,1.15,2.45
			c-0.13,1.18-0.65,2.02-1.56,2.54c-4.77-0.28-11.64-0.51-20.6-0.68c-6.9-0.03-13.25,0.14-19.05,0.5c-0.66-0.53-0.98-1.38-0.98-2.55
			c-0.13-1.11,0.07-1.92,0.61-2.45l6.58-0.56c2.45-0.12,4.68-1.01,6.68-2.67c2-1.33,3.73-3.79,5.16-7.39
			c3.52-8.46,9.42-23.66,17.71-45.58l20.36-55.19c2.8-6.98,3.95-11.84,3.45-14.58c2.39-0.79,4.52-1.92,6.4-3.37
			c1.55-1.52,2.88-2.95,3.99-4.28c1.42,0.01,2.41,0.61,2.99,1.81c1.27,4.54,2.7,9.05,4.29,13.53c1.39,4.81,2.83,9.45,4.29,13.92
			l26.72,82.55c2.74,8.48,5.23,14.16,7.47,17.04c2.25,2.74,5.34,4.32,9.27,4.74l5.41,0.62c0.8,0.53,1.13,1.34,0.99,2.45
			c0,1.18-0.34,2.02-1.01,2.54c-7.54-0.43-15.54-0.66-23.98-0.69c-9.54-0.04-17.15,0.12-22.83,0.49c-0.77-0.53-1.16-1.38-1.15-2.55
			c0-1.11,0.26-1.92,0.78-2.45l5.81-0.57c4.45-0.38,6.74-1.61,6.88-3.68c0.01-2.34-0.81-5.98-2.46-10.93L901.81,94.48z
			 M862.71,76.12c-0.81,2.13-0.95,3.5-0.42,4.1c0.39,0.54,1.91,0.81,4.55,0.82l24.37,0.11c2.9,0.15,4.62-0.25,5.16-1.18
			c0.53-0.87,0.28-2.6-0.78-5.21l-10.59-33.38c-0.76-2.6-1.53-5.14-2.29-7.62c-0.83-2.34-1.57-4.15-2.2-5.42l-0.39,0
			c-0.26,0.47-0.79,1.77-1.57,3.9c-0.98,2.33-2.05,5.06-3.23,8.19L862.71,76.12z"/>
		<linearGradient id="SVGID_7_" gradientUnits="userSpaceOnUse" x1="-47.8601" y1="74.7271" x2="942.9077" y2="74.7271">
			<stop  offset="0" style="stop-color:#E82829"/>
			<stop  offset="0.2246" style="stop-color:#E4E11D"/>
			<stop  offset="0.4017" style="stop-color:#7EBF42"/>
			<stop  offset="0.6167" style="stop-color:#4A9DD6"/>
			<stop  offset="0.8347" style="stop-color:#E36CA5"/>
			<stop  offset="1" style="stop-color:#E82432"/>
		</linearGradient>
		<path class="st6" d="M1022.76,111.36c-0.18,10.49,0.47,17.47,1.94,20.95c1.41,3.28,4.7,5,9.86,5.15l7.55,0.62
			c0.53,0.66,0.79,1.54,0.79,2.65c-0.14,1.04-0.54,1.82-1.2,2.35c-11.09-0.44-20.08-0.68-26.98-0.7
			c-7.54-0.03-16.18,0.12-25.92,0.47c-0.66-0.53-0.98-1.31-0.98-2.35c-0.13-1.11,0.07-1.99,0.61-2.64l6.11-0.56
			c5.56-0.24,9.02-2,10.39-5.27c1.18-3.33,1.73-10.25,1.64-20.73l0.05-10.52c0.02-5.34-0.22-9.59-0.72-12.73
			c-0.76-3.14-2.59-7.39-5.47-12.75L977.21,28c-3.14-6.56-5.77-10.81-7.89-12.76c-2.26-1.75-4.83-2.69-7.74-2.84l-5.52-1.13
			c-0.53-0.77-0.72-1.67-0.59-2.69c0-1.09,0.34-1.82,1-2.21c6.06,0.43,13.74,0.66,23.04,0.7c9.1,0.04,16.17-0.13,21.2-0.51
			c0.9,0.26,1.41,1,1.54,2.22c0,1.02-0.33,1.92-0.98,2.68l-2.62,0.48c-3.29,0.52-5.46,1.05-6.49,1.58c-1.36,0.53-1.98,1.19-1.85,2
			c0,0.47,0.32,1.44,0.96,2.91c0.7,1.41,1.31,3.04,1.82,4.92c1.53,3.88,2.65,6.56,3.35,8.03c7.16,15.8,14.55,31.03,22.16,45.69
			c6.37-11.06,12.65-22.59,18.84-34.58c3.06-5.6,5.98-11.13,8.78-16.59c2.67-5.46,4.07-8.96,4.21-10.5c0-0.67-0.74-1.34-2.22-2.01
			c-1.55-0.68-3.58-1.08-6.1-1.23l-3.58-0.52c-0.52-0.77-0.77-1.67-0.76-2.69c0-1.09,0.4-1.82,1.17-2.2
			c6.84,0.43,13.16,0.66,18.97,0.68c5.87,0.03,12.03-0.15,18.49-0.52c0.79,0.52,1.32,1.32,1.58,2.41c0,1.03-0.41,1.86-1.21,2.49
			l-5.53,1.07c-4.92,0.91-9.29,4.24-13.13,9.96c-4.03,5.86-8.46,13.29-13.28,22.29l-12.6,22.29c-4.23,7-6.9,12.39-8.02,16.2
			c-1.06,4-1.53,9.68-1.43,17.03L1022.76,111.36z"/>
	</g>
	<linearGradient id="SVGID_8_" gradientUnits="userSpaceOnUse" x1="-47.8601" y1="72.3585" x2="942.9077" y2="72.3585">
		<stop  offset="0" style="stop-color:#E82829"/>
		<stop  offset="0.2246" style="stop-color:#E4E11D"/>
		<stop  offset="0.4017" style="stop-color:#7EBF42"/>
		<stop  offset="0.6167" style="stop-color:#4A9DD6"/>
		<stop  offset="0.8347" style="stop-color:#E36CA5"/>
		<stop  offset="1" style="stop-color:#E82432"/>
	</linearGradient>
	<path class="st7" d="M215.01,143.17c-22.2-0.36-39.4-7.47-51.61-21.32c-12.4-13.31-18.62-29.43-18.67-48.36
		c0.22-21.05,6.98-38.25,20.27-51.59c13.03-13.4,29.91-20.19,50.63-20.37c23.04,0.37,40.27,7.61,51.7,21.72
		c11.3,13.84,16.91,30.1,16.83,48.75c-0.35,20.99-7.04,38.02-20.07,51.09C251.05,136.3,234.69,142.99,215.01,143.17z M217.65,137
		c12.41,0.05,23.23-4.67,32.45-14.19c9.16-9.51,13.91-24.32,14.25-44.43c0.21-17.97-3.7-34.02-11.72-48.15
		C244.62,15.71,231.14,8.2,212.2,7.72c-2.46-0.01-5.01,0.18-7.66,0.57c-2.65,0.39-5.37,1.08-8.15,2.07
		c-5.44,1.98-10.62,5.3-15.56,9.95c-4.67,4.39-8.48,10.45-11.42,18.19c-3.2,7.8-4.83,17.31-4.88,28.54
		c-0.21,16.16,3.77,31.58,11.92,46.24C184.72,128.6,198.45,136.51,217.65,137z"/>
</g>
</svg>
